<svg width="1661" height="564" viewBox="0 0 1661 564" fill="none" xmlns="http://www.w3.org/2000/svg">
<path d="M1638.71 139.025C1638.71 147.379 1638.71 155.733 1638.36 164.596C1636.95 166.093 1635.48 166.889 1634.93 168.103C1632.66 173.066 1630.66 178.156 1628.57 183.201C1619.57 204.925 1610.73 226.719 1601.52 248.352C1593.99 266.032 1585.9 283.473 1578.25 301.105C1565.99 329.384 1554.06 357.81 1541.66 386.03C1530.62 411.16 1519.11 436.082 1507.85 461.12C1498.3 482.377 1488.72 503.624 1479.42 524.993C1478.03 528.194 1476.44 529.182 1473.16 529.128C1464.67 528.988 1456.18 529.103 1447.68 529.254C1439.56 529.398 1431.43 530.01 1423.31 529.842C1418.64 529.746 1417.67 527.304 1419.64 523.149C1425.46 510.902 1431.28 498.651 1436.99 486.356C1448.04 462.604 1459.14 438.877 1469.87 414.983C1471.22 411.98 1471.71 407.511 1470.48 404.611C1463.66 388.422 1456.11 372.539 1448.94 356.49C1440.43 337.414 1432.03 318.284 1423.61 299.165C1418.53 287.627 1413.5 276.066 1408.44 264.516C1400.35 246.029 1392.29 227.531 1384.16 209.061C1376.36 191.326 1368.46 173.63 1360.66 155.897C1358.37 150.697 1356.24 145.427 1354.14 140.437C1355.43 139.557 1355.69 139.216 1355.96 139.21C1373.08 138.804 1390.2 138.385 1407.31 138.071C1411.81 137.989 1414.35 140.431 1416.09 144.616C1426.55 169.871 1437.24 195.033 1447.82 220.24C1457.26 242.731 1466.66 265.243 1476.09 287.74C1482.16 302.241 1488.13 316.792 1494.45 331.188C1496.31 335.401 1499.19 339.16 1501.69 343.429C1502.79 343.587 1504.34 343.806 1504.73 343.234C1506.13 341.197 1507.34 338.971 1508.27 336.674C1515.71 318.31 1522.99 299.877 1530.48 281.535C1542.07 253.174 1553.86 224.896 1565.43 196.528C1572.69 178.732 1579.64 160.805 1586.96 143.036C1587.68 141.313 1590 139.317 1591.75 139.128C1598.59 138.394 1605.49 138.061 1612.37 138.098C1621.15 138.145 1629.93 138.693 1638.71 139.025Z" fill="#156CED"/>
<path d="M1501.61 343.127C1499.19 339.16 1496.31 335.401 1494.45 331.188C1488.13 316.792 1482.16 302.241 1476.09 287.74C1466.66 265.243 1457.26 242.731 1447.82 220.24C1437.24 195.033 1426.55 169.871 1416.09 144.616C1414.35 140.431 1411.81 137.989 1407.31 138.071C1390.2 138.385 1373.08 138.804 1355.96 139.21C1355.69 139.216 1355.43 139.557 1354.14 140.437C1356.24 145.427 1358.37 150.697 1360.66 155.897C1368.46 173.63 1376.36 191.326 1384.16 209.061C1392.29 227.531 1400.35 246.029 1408.44 264.516C1413.5 276.066 1418.53 287.627 1423.61 299.165C1432.03 318.284 1440.43 337.414 1448.94 356.49C1456.11 372.539 1463.66 388.422 1470.48 404.612C1471.71 407.511 1471.22 411.98 1469.87 414.983C1459.14 438.877 1448.04 462.604 1436.99 486.356C1431.28 498.651 1425.46 510.902 1419.64 523.149C1417.67 527.304 1418.64 529.746 1423.31 529.842C1431.43 530.01 1439.56 529.398 1447.68 529.254C1456.18 529.103 1464.67 528.988 1473.16 529.128C1476.44 529.182 1478.03 528.194 1479.42 524.993C1488.72 503.624 1498.3 482.377 1507.85 461.12C1519.11 436.082 1530.62 411.161 1541.66 386.03C1554.06 357.81 1565.99 329.384 1578.25 301.105C1585.9 283.473 1593.99 266.032 1601.52 248.352C1610.73 226.719 1619.57 204.925 1628.57 183.201C1630.66 178.156 1632.66 173.066 1634.93 168.103C1635.48 166.889 1636.95 166.093 1638.36 165.065C1638.71 165.469 1638.71 165.913 1638.4 166.847C1634.03 177.239 1629.97 187.141 1625.66 197.314C1624.17 200.911 1622.93 204.237 1621.41 207.825C1618.62 214.066 1616.11 220.044 1613.33 226.241C1609.16 235.869 1605.27 245.279 1601.15 254.962C1598.08 262.148 1595.25 269.061 1592.17 276.206C1590.92 278.964 1589.9 281.489 1588.6 284.251C1584.34 293.673 1580.35 302.857 1576.14 312.286C1575.07 314.506 1574.24 316.486 1573.4 318.457C1566.17 335.288 1558.93 352.118 1551.45 369.205C1547.21 378.642 1543.21 387.822 1539.03 397.259C1538.12 399.502 1537.4 401.487 1536.39 403.712C1532.97 411.328 1529.85 418.702 1526.47 426.307C1522.34 435.309 1518.48 444.079 1514.32 453.063C1511.85 458.446 1509.66 463.616 1507.23 469.031C1505.28 473.214 1503.58 477.152 1501.67 481.377C1497.27 491.12 1493.08 500.578 1488.65 510.306C1485.17 517.663 1481.93 524.749 1478.22 531.86C1468.74 531.961 1459.72 532.036 1450.23 532.037C1440.42 532.037 1431.07 532.111 1421.29 532.11C1418.64 532.035 1416.41 532.035 1413.63 532.035C1415.6 527.258 1417.27 523.219 1418.91 519.113C1418.88 519.048 1418.87 519.189 1419.15 518.974C1420.14 516.513 1420.86 514.267 1421.66 511.813C1421.73 511.605 1421.78 511.166 1422.09 510.991C1427.01 501.228 1431.62 491.641 1436.44 481.795C1440.7 472.424 1444.77 463.312 1449.09 453.986C1449.9 452.536 1450.44 451.299 1451.23 449.832C1455.64 440.41 1459.06 430.789 1464.15 422.146C1469.36 413.288 1470.52 405.251 1464.55 396.645C1464.36 396.378 1464.14 396.136 1463.85 395.528C1456.22 378.339 1448.68 361.503 1441.06 344.349C1440.51 343.027 1440.05 342.023 1439.54 340.672C1435.32 331.203 1431.16 322.082 1426.94 312.589C1425.18 308.799 1423.48 305.381 1421.75 301.987C1421.72 302.011 1421.79 302.007 1421.86 301.673C1421.52 300.564 1421.12 299.789 1420.69 298.725C1420.57 298.266 1420.47 298.097 1420.37 297.715C1420.25 297.217 1420.04 297.029 1419.73 296.673C1419.61 296.256 1419.52 296.104 1419.42 295.728C1419.31 295.168 1419.09 294.994 1418.73 295.004C1418.71 295.027 1418.76 295.007 1418.76 294.699C1418.42 293.917 1418.09 293.443 1417.74 292.994C1417.72 293.018 1417.78 293.012 1417.79 292.66C1417.45 291.713 1417.11 291.118 1416.8 290.196C1415.98 287.91 1415.12 285.952 1414.18 283.615C1409.75 273.741 1405.41 264.246 1400.99 254.394C1398.26 247.942 1395.6 241.849 1392.86 235.417C1391.35 232.058 1389.94 229.038 1388.49 225.675C1384.21 215.902 1379.97 206.473 1375.7 196.67C1371.42 186.648 1367.16 176.999 1362.91 167.297C1362.93 167.244 1362.83 167.197 1362.78 166.822C1358.46 156.93 1354.19 147.413 1350 137.522C1354.92 136.776 1359.76 136.405 1365.08 136.117C1371.95 136.146 1378.36 136.091 1385.2 136.139C1388.33 136.133 1391.03 136.025 1394.19 136C1401.65 136.393 1408.66 136.704 1415.71 137.389C1417.73 142.205 1419.71 146.647 1421.7 151.058C1421.71 151.027 1421.65 151.014 1421.67 151.358C1422.02 152.288 1422.35 152.875 1422.67 153.813C1424.62 158.821 1426.58 163.479 1428.61 168.496C1432.59 177.965 1436.49 187.075 1440.5 196.539C1444.92 206.994 1449.24 217.094 1453.61 227.559C1457.41 236.946 1461.16 245.969 1464.96 255.338C1465.93 257.802 1466.87 259.916 1467.78 262.042C1475.05 279.027 1482.32 296.015 1489.63 313.376C1493.73 323.448 1497.79 333.146 1501.8 342.916C1501.73 342.988 1501.61 343.127 1501.61 343.127Z" fill="#3670C5"/>
<path d="M1373 233.775C1372.99 267.656 1372.98 301.536 1372.98 335.416C1372.98 346.042 1373.03 356.668 1373.31 367.685C1373.57 368.076 1373.63 368.126 1373.56 368.563C1373.62 373.465 1373.54 377.944 1373.9 382.388C1374.29 387.217 1375.09 392.013 1375.76 397.279C1376.15 401.448 1376.66 405.156 1376.75 408.875C1376.78 409.889 1375.55 410.934 1374.43 411.886C1357.19 411.829 1340.42 411.785 1323.65 411.926C1320.47 411.953 1318.96 411.296 1318.57 407.715C1317.6 398.825 1316.09 389.993 1314.83 381.132C1314.58 379.335 1314.86 377.031 1311.93 378.512C1316.53 374.838 1316.42 378.915 1316.78 381.41C1317.93 389.252 1319 397.114 1319.77 405C1320.15 408.879 1321.9 409.95 1325.6 409.907C1340.25 409.739 1354.9 409.835 1369.55 409.798C1370.83 409.795 1372.1 409.54 1373.81 409.355C1373.81 407.617 1373.89 406.148 1373.8 404.692C1372.84 389.825 1371.49 374.973 1370.97 360.092C1370.49 346.456 1370.98 332.789 1370.87 319.137C1370.59 285.379 1370.62 251.609 1369.66 217.869C1369.27 203.891 1364.74 190.567 1357.86 178.211C1356.58 175.925 1355.73 173.399 1354.78 170.9C1354.87 170.816 1355.04 170.649 1355.04 170.649C1358.01 175.982 1360.99 181.315 1364.16 186.935C1365.18 189.537 1366.01 191.851 1367.02 194.498C1369.04 204.547 1370.88 214.265 1372.83 224.373C1372.94 226.189 1372.94 227.613 1372.9 229.836C1372.91 231.681 1372.95 232.728 1373 233.775Z" fill="#C04343"/>
<path d="M1167.74 139.656C1172.62 138.265 1177.45 136.629 1182.4 135.536C1193.18 133.153 1203.97 130.741 1214.86 128.935C1222.17 127.721 1229.67 126.866 1237.06 127.017C1249.62 127.275 1262.18 128.276 1274.71 129.287C1292.13 130.693 1308.12 137.138 1324.37 143.911C1325.19 144.606 1325.51 145.491 1326.14 145.87C1336.15 151.956 1344.45 159.913 1351.68 169.062C1352.27 169.801 1353.25 170.229 1354.37 170.893C1355.73 173.399 1356.58 175.925 1357.86 178.211C1364.74 190.567 1369.27 203.891 1369.66 217.869C1370.62 251.609 1370.59 285.379 1370.87 319.137C1370.98 332.789 1370.49 346.456 1370.97 360.092C1371.49 374.973 1372.84 389.825 1373.8 404.692C1373.89 406.148 1373.81 407.616 1373.81 409.355C1372.1 409.54 1370.83 409.795 1369.55 409.798C1354.9 409.835 1340.25 409.739 1325.6 409.907C1321.9 409.95 1320.15 408.879 1319.77 405C1319 397.114 1317.93 389.252 1316.78 381.41C1316.42 378.915 1316.53 374.838 1311.84 378.73C1311.54 379.592 1311.29 379.768 1310.71 379.925C1310.27 380.309 1310.09 380.61 1309.9 380.873C1309.89 380.835 1309.96 380.858 1309.7 380.943C1309.28 381.337 1309.11 381.647 1308.94 381.913C1308.92 381.869 1309.01 381.895 1308.74 381.968C1308.31 382.356 1308.14 382.67 1307.96 382.938C1307.94 382.891 1308.04 382.922 1307.77 382.985C1307.32 383.363 1307.15 383.678 1307 383.949C1307.02 383.905 1307.08 383.974 1306.72 383.936C1305.16 385.163 1303.94 386.429 1302.53 387.821C1302.09 388.144 1301.89 388.381 1301.38 388.697C1299.59 390.033 1298.14 391.33 1296.36 392.683C1294.93 393.728 1293.83 394.717 1292.54 395.823C1292.08 396.131 1291.87 396.368 1291.36 396.688C1284.58 400.372 1278.16 404.019 1271.35 407.698C1265.22 409.288 1259.56 411.186 1253.75 412.33C1243.27 414.39 1232.77 416.686 1222.17 417.582C1213.49 418.314 1204.66 417.146 1195.89 416.832C1183.06 416.372 1170.67 413.801 1158.67 409.248C1156.55 408.443 1154.22 408.184 1151.79 407.396C1147.74 405.298 1143.88 403.478 1139.92 401.342C1138.87 400.578 1137.93 400.131 1136.9 399.359C1135.87 398.58 1134.93 398.127 1133.92 397.339C1131.24 394.89 1128.62 392.775 1125.87 390.46C1125.55 389.997 1125.3 389.799 1124.87 389.465C1124.55 388.999 1124.3 388.8 1123.87 388.466C1123.54 388.001 1123.29 387.803 1122.86 387.474C1122.53 387.031 1122.29 386.833 1121.88 386.48C1121.55 386.029 1121.3 385.833 1120.97 385.335C1119.61 383.558 1118.29 382.134 1116.84 380.506C1116.53 380.047 1116.29 379.843 1115.96 379.405C1115.6 378.659 1115.28 378.199 1114.94 377.396C1114.27 376.264 1113.64 375.474 1112.97 374.314C1112.4 372.556 1112.04 371.076 1111.33 369.793C1104.79 358.07 1102.29 345.229 1102.02 332.1C1101.68 315.544 1105.68 299.914 1114.81 285.82C1115.77 284.338 1116.28 282.565 1117.19 280.798C1117.64 280.463 1117.83 280.212 1118.3 279.851C1121.42 276.837 1124.21 273.886 1127.2 270.812C1127.65 270.494 1127.86 270.256 1128.36 269.939C1129.81 268.926 1130.91 267.951 1132.36 266.926C1133.81 265.91 1134.93 264.944 1136.4 263.933C1138.6 263.117 1140.43 262.364 1142.25 261.571C1151.06 257.734 1159.59 252.949 1168.73 250.233C1188.79 244.273 1209.62 242.063 1230.44 240.97C1249.36 239.977 1268.34 240.139 1287.29 239.85C1293.62 239.753 1299.95 239.919 1306.28 239.781C1307.77 239.748 1309.24 238.973 1310.77 238.35C1310.81 238.161 1311.02 237.831 1311.4 237.733C1312.15 236.276 1312.97 234.853 1312.79 233.57C1311.48 224.123 1310.42 214.601 1308.3 205.324C1307.43 201.499 1304.18 198.217 1301.96 194.343C1300.93 192.902 1299.94 191.806 1298.84 190.505C1298.53 190.043 1298.28 189.845 1297.96 189.345C1295.95 187.209 1293.98 185.435 1291.93 183.323C1289.71 181.266 1287.76 179.178 1285.38 177.891C1275.5 172.556 1264.84 169.886 1253.7 168.534C1233.91 166.131 1214.97 168.759 1197.22 177.842C1192.6 180.204 1187 182.372 1185.39 188.745C1182.45 192.941 1179.15 196.77 1177.37 201.207C1173.62 210.549 1173.94 210.678 1164.13 211.002C1163.8 211.013 1163.48 211.191 1163.16 211.196C1148.56 211.398 1133.97 211.607 1119.38 211.763C1116.96 211.789 1115.83 210.808 1116.21 208.032C1117.61 197.772 1120.22 187.935 1125.32 178.835C1127.32 175.264 1129.1 171.571 1131.32 167.857C1133.44 165.515 1135.23 163.249 1137.34 160.884C1138.03 160.088 1138.41 159.391 1138.82 158.735C1138.86 158.776 1138.76 158.735 1139.13 158.774C1141.92 156.429 1144.33 154.044 1146.81 151.705C1146.88 151.749 1146.73 151.69 1147.11 151.74C1150.23 149.74 1152.98 147.69 1155.8 145.673C1155.88 145.706 1155.72 145.673 1156.11 145.727C1160.25 143.742 1164.01 141.703 1167.78 139.672C1167.78 139.68 1167.74 139.656 1167.74 139.656ZM1228.09 374.166C1228.66 374.025 1229.22 373.883 1230.67 373.774C1238.96 371.8 1247.48 370.454 1255.5 367.676C1263.67 364.846 1271.35 360.606 1279.89 356.839C1285.66 351.221 1291.42 345.603 1297.68 339.524C1299.8 335.403 1302.04 331.336 1304.02 327.144C1305.23 324.565 1306.04 321.795 1307.57 318.569C1311.29 306.8 1310.98 294.73 1310.68 282.021C1304.33 282.021 1298.38 281.955 1292.44 282.036C1282.65 282.17 1272.86 282.4 1262.25 282.402C1258.47 282.568 1254.69 282.733 1249.98 282.74C1240.6 283.493 1231.22 284.246 1221.18 284.873C1220.74 284.94 1220.3 285.007 1219.18 284.882C1218.31 285.108 1217.43 285.334 1215.87 285.523C1215.21 285.673 1214.55 285.824 1213.18 285.805C1212.04 286.11 1210.91 286.416 1208.95 286.727C1204.61 287.78 1200.26 288.832 1195.28 289.781C1194.74 290.081 1194.2 290.381 1193.27 290.736C1193.27 290.736 1192.94 290.947 1192.19 290.908C1181.28 294.885 1172.18 301.04 1166.75 312.156C1166.75 312.156 1166.65 312.502 1166.09 312.863C1165.78 313.879 1165.46 314.895 1164.95 316.393C1164.95 316.566 1164.95 316.738 1164.44 317.44C1161.53 325.413 1161.99 333.382 1164.28 341.415C1171.15 365.458 1196.69 375.531 1222.74 374.104C1224.4 374.028 1226.06 373.952 1228.09 374.166Z" fill="#E92D2E"/>
<path d="M1151.99 407.672C1154.22 408.184 1156.55 408.443 1158.67 409.248C1170.67 413.801 1183.06 416.372 1195.89 416.832C1204.66 417.146 1213.49 418.314 1222.17 417.582C1232.77 416.687 1243.27 414.39 1253.75 412.33C1259.56 411.186 1265.22 409.288 1271.42 407.788C1271.89 407.847 1272.03 408.028 1271.8 408.283C1269.16 409.579 1266.77 410.619 1264.09 411.653C1263.49 411.797 1263.16 411.947 1262.56 412.073C1262.02 412.257 1261.74 412.466 1261.18 412.668C1260.54 412.8 1260.19 412.938 1259.55 413.052C1258.96 413.235 1258.65 413.443 1257.97 413.636C1255.31 414.293 1253.02 414.965 1250.31 415.65C1240.51 416.999 1231.12 418.333 1221.34 419.56C1213.57 419.397 1206.19 419.342 1198.39 419.135C1195.34 418.739 1192.69 418.636 1190.09 418.224C1181.65 416.885 1173.23 415.432 1164.44 413.959C1159.98 412.21 1155.88 410.526 1151.75 408.656C1151.71 408.47 1151.59 408.11 1151.69 408.001C1151.79 407.892 1151.99 407.672 1151.99 407.672Z" fill="#C04343"/>
<path d="M824.677 0C835.367 0.027923 845.759 0.1614 856.605 0.177414C857.512 0.0917579 857.964 0.123573 859.189 0.228561C862.977 0.222938 865.993 0.144134 869.008 0.0653381C869.779 0.103042 870.55 0.140748 872.135 0.253098C873.94 0.356194 874.953 0.532632 875.917 0.3881C880.684 -0.326324 882.318 1.59271 882.025 6.40567C881.705 11.6495 882.196 16.9426 882.275 22.6849C882.231 31.8589 882.245 40.5622 882.138 49.7162C882.136 60.2116 882.254 70.2564 882.302 80.7605C882.279 90.5441 882.327 99.8682 882.23 109.643C882.205 119.507 882.325 128.92 882.358 138.788C882.355 148.226 882.438 157.21 882.383 166.492C882.508 167.42 882.772 168.048 883.036 168.677C883.734 167.929 884.432 167.181 885.419 166.258C894.168 159.148 902.627 152.213 911.445 145.25C915.619 142.967 919.436 140.713 923.62 138.395C929.351 136.299 934.716 134.266 940.492 132.269C950.603 130.86 960.301 129.417 970.472 128.017C976.978 128.017 983.011 127.974 989.468 128.065C992.267 128.295 994.641 128.39 997.324 128.708C1006.73 130.749 1015.82 132.566 1024.97 134.383C1025.01 134.383 1024.92 134.359 1024.99 134.617C1025.39 134.956 1025.72 135.038 1026.38 135.28C1029.4 136.486 1032.09 137.531 1034.92 138.869C1037.74 140.482 1040.4 141.801 1043.25 143.215C1043.42 143.31 1043.82 143.352 1044.01 143.639C1046.49 145.287 1048.78 146.649 1051.32 148.211C1052.32 148.752 1053.07 149.094 1053.83 149.459C1053.84 149.482 1053.82 149.53 1053.88 149.758C1054.12 150.276 1054.38 150.433 1054.75 150.475C1054.78 150.491 1054.81 150.549 1054.9 150.856C1056.02 151.846 1057.04 152.531 1058.24 153.423C1058.88 153.942 1059.33 154.253 1059.88 154.787C1060.19 155.286 1060.47 155.424 1060.9 155.371C1060.97 155.316 1060.86 155.461 1060.94 155.775C1062.02 156.805 1063.03 157.522 1064.24 158.504C1067.01 161.241 1069.58 163.714 1072.22 166.47C1072.8 167.001 1073.3 167.249 1073.9 167.418C1074 167.34 1073.83 167.527 1073.9 167.859C1076.88 171.97 1079.79 175.749 1082.78 179.718C1082.86 179.907 1083.06 180.259 1083.07 180.51C1083.32 180.972 1083.56 181.184 1083.84 181.397C1083.88 181.398 1083.84 181.465 1083.85 181.785C1084.45 182.925 1085.04 183.745 1085.78 184.878C1088.32 189.191 1090.72 193.19 1093.08 197.571C1096.22 207.397 1099.39 216.842 1102.61 226.719C1104.13 235.532 1105.61 243.914 1106.89 252.438C1106.86 253.082 1107.02 253.583 1107.16 254.115C1107.15 254.144 1107.2 254.183 1107.14 254.639C1107.45 264.833 1107.82 274.57 1108.08 284.714C1107.02 292.895 1106.07 300.669 1104.9 308.644C1104.71 309.589 1104.74 310.334 1104.61 311.455C1104.43 312.629 1104.4 313.429 1104.1 314.492C1101.32 323.622 1098.81 332.489 1096.25 341.382C1096.19 341.407 1096.21 341.524 1095.94 341.688C1095.48 342.64 1095.28 343.429 1094.87 344.479C1088.61 356.528 1083.04 368.647 1073.62 378.261C1067.27 384.749 1060.5 390.829 1053.57 397.143C1044.17 402.226 1035.11 407.258 1025.67 412.309C1015.92 414.918 1006.54 417.509 996.682 420.049C987.147 420.419 978.089 420.841 968.712 421.013C958.94 419.642 949.486 418.52 939.803 417.29C939.407 417.21 939.241 417.237 938.847 417.125C938.273 416.964 937.925 416.943 937.387 416.706C936.826 416.458 936.456 416.425 935.813 416.272C935.148 416.111 934.755 416.071 934.15 415.79C933.319 415.474 932.701 415.399 931.89 415.215C931.698 415.105 931.255 415.104 931.067 414.855C930.279 414.513 929.681 414.421 928.89 414.217C928.697 414.107 928.253 414.099 928.065 413.847C927.277 413.49 926.677 413.385 925.918 413.166C925.758 413.053 925.368 413.057 925.227 412.836C924.755 412.565 924.424 412.514 923.857 412.345C923.443 412.212 923.267 412.199 922.932 411.93C922.205 411.544 921.636 411.415 921.057 411.256C921.048 411.227 920.99 411.248 920.81 410.96C917.793 409.366 914.955 408.06 911.899 406.517C906.833 403.268 901.983 400.257 896.989 396.94C892.245 392.5 887.646 388.367 883.017 383.891C882.127 382.509 881.266 381.47 880.405 380.431C879.989 380.537 879.572 380.643 879.156 380.749C878.421 387.912 877.686 395.074 876.897 402.592C876.627 404.367 876.411 405.786 876.087 407.45C876.002 407.873 876.024 408.051 875.997 408.56C876.003 409.332 876.057 409.772 875.999 410.507C875.598 411.584 875.309 412.365 874.555 413.123C858.051 413.245 842.013 413.39 825.593 413.451C823.673 413.639 822.136 413.91 820 414.288C820 408.248 820 402.75 820.286 396.952C820.866 387.424 821.161 378.198 821.564 368.535C821.629 359.227 821.584 350.355 821.693 341.016C821.713 331.354 821.581 322.16 821.566 312.531C821.654 302.884 821.624 293.671 821.74 283.992C821.787 274.022 821.688 264.519 821.675 254.57C821.69 244.909 821.619 235.692 821.692 226.007C821.7 215.682 821.566 205.826 821.526 195.531C821.579 185.893 821.538 176.694 821.667 167.031C821.71 157.036 821.581 147.504 821.548 137.533C821.598 127.893 821.552 118.692 821.672 109.028C821.708 98.7017 821.578 88.839 821.536 78.5355C821.551 68.8929 821.478 59.6911 821.574 50.0339C821.663 40.0463 821.582 30.5142 821.502 20.9821C821.6 14.6042 821.698 8.22632 822.081 1.36482C822.674 0.755195 822.929 0.558915 823.13 0.292374C823.546 0.230103 823.962 0.167831 824.677 0ZM1002.06 185.227C1002.06 185.227 1002.04 185.218 1001.75 184.702C1001.2 184.542 1000.64 184.382 1000.06 184.226C1000.06 184.226 1000.05 184.204 999.668 183.657C998.816 183.402 997.964 183.147 996.688 182.349C987.577 178.219 978.081 175.964 967.143 176.316C964.765 176.373 962.387 176.43 959.543 176.336C959.543 176.336 959.091 176.526 958.251 176.447C952.19 177.763 946.129 179.078 939.333 180.362C938.233 180.744 937.007 180.927 936.054 181.537C928.598 186.314 921.196 191.172 913.176 196.194C912.41 197.143 911.644 198.092 910.213 199.171C901.99 206.69 895.578 215.44 891.926 226.119C891.926 226.119 891.874 226.131 891.408 226.292C891.126 226.535 891.04 226.835 890.766 227.813C885.302 240.751 882.461 254.238 882.042 268.902C882.102 269.335 882.163 269.768 882.106 271.117C882.146 274.506 882.185 277.895 882.014 282.148C883.966 292.871 885.918 303.594 887.95 315.104C890.997 324.726 894.435 334.144 901.832 342.238C904.849 345.638 907.866 349.038 911.155 352.826C911.367 353.085 911.64 353.234 912.116 353.928C920.231 361.215 929.098 367.122 940.441 369.374C940.441 369.374 940.85 369.263 941.351 369.841C950.237 370.594 959.123 371.346 968.893 372.174C977.947 370.163 987.001 368.152 996.558 366.137C996.784 365.901 997.01 365.665 997.928 365.274C1009.39 359.715 1019.42 352.482 1026.36 340.839C1026.4 340.67 1026.45 340.501 1027.13 340.17C1033.17 332.027 1038.01 323.314 1040.29 312.579C1041.87 303.126 1043.44 293.674 1045.56 283.609C1044.83 271.963 1044.77 260.221 1043.12 248.705C1042.03 241.033 1038.68 233.682 1036.31 225.41C1032.57 218.952 1028.83 212.494 1025.02 205.398C1024.29 204.682 1023.56 203.966 1022.79 202.79C1022.64 202.477 1022.39 202.327 1022.02 201.643C1020.59 200.199 1019.16 198.756 1017.63 196.721C1016.76 195.952 1015.88 195.183 1014.75 193.856C1013.93 193.279 1013.11 192.702 1012.06 191.63C1011.74 191.476 1011.42 191.323 1010.83 190.633C1009.98 190.128 1009.14 189.624 1008.05 188.632C1007.73 188.504 1007.4 188.375 1006.78 187.768C1006.28 187.553 1005.77 187.337 1005.04 186.664C1004.72 186.562 1004.41 186.459 1003.8 186.097C1003.8 186.097 1003.42 186.053 1003.11 185.584C1002.77 185.47 1002.42 185.356 1002.06 185.227Z" fill="#92C426"/>
<path d="M551 314.274C551.589 308.279 552.535 302.768 552.708 297.232C552.996 288.016 552.904 278.782 552.738 269.559C552.659 265.134 552.043 260.718 551.354 255.551C551.026 245.488 551.014 236.171 551.203 226.486C551.637 218.386 551.954 210.654 552.044 202.92C552.068 200.879 551.391 198.831 551.034 196.322C551.044 186.574 551.056 177.29 551.319 167.756C551.746 165.754 552.121 163.995 552.066 162.25C551.822 154.442 551.455 146.637 551.4 138.609C553.166 137.551 554.599 136.189 556.178 135.992C559.392 135.592 562.685 135.82 566.17 135.972C566.586 136.485 566.775 136.816 566.642 137.386C564.161 137.702 562.003 137.821 559.845 137.842C555.847 137.88 553.524 139.403 553.936 143.857C554.319 147.984 554.665 152.131 554.696 156.271C554.799 170.037 554.76 183.804 554.761 197.571C554.763 224.546 554.749 251.522 554.754 278.498C554.761 321.293 554.781 364.088 554.781 406.882C554.782 409.955 554.367 413.007 559.073 412.974C575.724 412.854 592.376 412.878 609.027 412.913C612.017 412.919 613.116 411.586 613.18 408.67C613.343 401.369 613.89 394.074 613.96 386.774C614.09 373.177 613.985 359.578 613.986 345.98C613.988 324.555 613.982 303.13 614.008 281.705C614.021 270.605 613.813 259.495 614.268 248.413C614.48 243.237 616.028 238.117 616.984 233.338C617.057 234.193 617.115 234.682 617.173 235.581C616.809 239.6 616.445 243.21 615.77 247.091C615.392 249.338 615.325 251.314 615.302 253.49C615.375 253.971 615.323 254.237 615.212 254.772C615.493 255.312 615.755 255.567 616.067 255.795C616.117 255.768 616.231 255.776 616.168 256.245C616.06 266.096 616.014 275.477 615.702 285.053C615.337 285.882 615.238 286.517 615.166 287.602C615.167 295.89 615.142 303.729 615.132 311.82C615.241 312.417 615.45 312.666 615.884 313.05C616.067 313.436 616.139 313.591 616.14 314.222C616.338 323.727 616.608 332.755 616.579 342.086C616.188 351.556 616.095 360.723 616.136 370.28C616.476 372.301 616.895 373.938 616.852 375.562C616.659 383.013 616.337 390.461 615.858 398.27C615.477 402.245 614.599 406.002 615.292 409.443C616.26 414.246 614.195 414.841 610.358 414.814C597.249 414.721 584.139 414.738 571.031 414.819C569.31 414.83 567.594 415.462 565.421 415.805C563.151 415.807 561.335 415.816 559.519 415.813C552.593 415.801 551.107 413.877 551.753 406.827C552.017 403.944 551.355 400.976 551.41 397.729C551.78 388.207 551.853 379.003 551.927 369.799C551.621 351.448 551.315 333.097 551 314.274Z" fill="#EBD38D"/>
<path d="M616.97 232.971C616.028 238.117 614.48 243.237 614.268 248.412C613.813 259.495 614.021 270.605 614.008 281.705C613.982 303.13 613.988 324.555 613.986 345.98C613.985 359.578 614.09 373.177 613.96 386.774C613.89 394.074 613.343 401.369 613.18 408.67C613.116 411.586 612.017 412.919 609.027 412.913C592.376 412.878 575.724 412.854 559.073 412.974C554.367 413.007 554.782 409.955 554.782 406.882C554.781 364.087 554.761 321.293 554.754 278.498C554.749 251.522 554.763 224.546 554.761 197.571C554.76 183.804 554.799 170.037 554.696 156.271C554.665 152.131 554.319 147.984 553.936 143.857C553.524 139.403 555.847 137.88 559.845 137.842C562.003 137.821 564.161 137.702 567.057 137.38C569.448 137.152 571.103 137.171 572.943 137.525C573.558 138.099 573.991 138.553 574.415 138.546C583.541 138.396 592.68 138.444 601.786 137.911C607.297 137.588 608.9 138.668 609.108 144.342C609.315 149.973 609.607 155.607 610.1 161.22C610.26 163.043 611.167 164.802 611.733 166.59C613.457 165.768 615.458 165.268 616.855 164.066C621.254 160.28 625.128 155.83 629.759 152.38C636.25 147.545 643.238 143.379 650.305 138.903C651.081 138.578 651.565 138.279 652.443 137.943C661.161 135.782 669.49 133.674 677.797 131.488C678.318 131.351 678.677 130.602 679.388 130.112C680.033 130.042 680.402 129.998 681 130.147C682.065 130.186 682.9 130.032 683.85 129.714C683.966 129.551 683.996 129.152 684.389 129.11C685.834 129.004 686.885 128.941 688.244 129.156C696.697 129.279 704.844 129.124 713.342 129C714.399 129.057 715.104 129.082 715.973 129.446C723.416 131.061 730.696 132.339 738.218 133.705C738.63 133.812 738.801 133.832 739.187 134.101C740.254 134.495 741.105 134.641 741.961 134.82C741.967 134.855 742.028 134.822 742.232 135.074C743.278 135.465 744.12 135.604 744.978 135.78C744.994 135.818 745.074 135.8 745.214 136.035C745.861 136.368 746.367 136.466 747.152 136.657C747.624 136.779 747.818 136.808 748.206 137.085C749.555 137.71 750.71 138.086 752.171 138.661C773.709 149.26 789.009 165.199 797.381 187.431C803.48 203.628 805.624 220.644 805.899 237.769C806.358 266.423 806.069 295.089 806.068 323.75C806.067 350.745 806.048 377.74 805.996 404.734C805.982 411.933 804.992 412.895 797.988 412.916C783.324 412.961 768.66 412.996 753.996 412.999C746.789 413.001 746.758 412.965 746.757 405.833C746.748 356.509 746.795 307.185 746.706 257.861C746.693 250.39 746.269 242.904 745.634 235.46C745.384 232.534 744.033 229.702 743.183 226.508C743.137 225.767 743.091 225.344 743.276 224.69C743.081 223.185 742.654 221.911 742.194 220.341C742.094 219.65 742.026 219.258 742.2 218.607C741.375 207.158 735.062 198.62 728.239 190.353C727.987 190.048 727.314 190.09 726.747 189.735C726.37 189.344 726.082 189.188 725.667 188.739C724.647 187.946 723.757 187.447 722.711 186.67C721.663 185.908 720.769 185.423 719.701 184.65C715.047 182.257 710.765 179.336 706.052 178.192C687.132 173.597 668.692 175.602 651.339 184.498C642.136 189.216 633.815 195.306 628.767 205.148C628.297 205.797 628.089 206.322 627.741 207.041C627.407 207.485 627.195 207.721 626.719 208.09C626.276 208.763 626.077 209.287 625.898 209.839C625.917 209.868 625.914 209.799 625.705 209.922C625.228 210.262 625.082 210.542 625.022 210.891C624.986 210.896 625.003 210.967 624.752 211.107C624.343 211.781 624.185 212.314 623.954 213.04C623.881 213.233 623.821 213.64 623.502 213.786C621.829 217.029 620.279 220.059 619.193 223.247C618.483 225.333 618.445 227.649 618.043 230.208C617.881 231.248 617.782 231.944 617.484 232.679C617.287 232.72 616.97 232.971 616.97 232.971Z" fill="#FAB716"/>
<path d="M748.012 136.837C747.818 136.808 747.624 136.779 746.984 136.472C746.049 136.063 745.562 135.932 745.074 135.8C745.074 135.8 744.994 135.818 744.761 135.545C743.695 135.122 742.862 134.972 742.028 134.822C742.028 134.822 741.967 134.855 741.748 134.573C740.676 134.145 739.824 133.998 738.971 133.852C738.801 133.832 738.63 133.812 738.194 133.459C737.928 133.126 737.868 132.632 737.891 132.419C737.914 132.205 737.929 131.771 738.321 131.846C740.148 132.296 741.58 132.677 743.015 133.045C750.649 135.007 758.284 136.965 765.919 138.925C765.919 138.925 765.948 138.865 765.927 139.261C767.38 142.071 768.501 144.817 770.394 146.84C776.099 152.939 782.379 158.519 787.856 164.805C790.011 167.278 791.948 168.273 794.927 167.921C794.927 167.921 794.906 167.883 794.888 167.899C796.002 173.195 796.868 178.549 798.346 183.729C799.606 188.145 801.568 192.361 803.571 197.253C805.554 207.448 807.185 217.055 808.817 226.663C808.503 229.191 807.926 231.72 807.925 234.248C807.924 241.274 808.162 248.3 808.612 256.089C808.908 266.151 808.898 275.451 808.888 284.751C808.565 287.797 807.966 290.843 807.975 293.887C807.994 300.308 808.331 306.728 808.73 313.987C808.903 323.786 808.884 332.745 808.865 341.704C808.561 345.222 808.04 348.737 808.004 352.257C807.947 357.975 808.207 363.695 808.623 369.743C808.918 378.984 808.923 387.897 808.928 397.264C808.589 401.555 807.884 405.404 808.009 409.225C808.149 413.54 806.586 415.232 802.299 414.889C800.051 414.71 797.757 415.108 794.732 415.547C785.343 415.849 776.703 415.732 768.068 415.891C762.46 415.995 756.862 416.71 751.255 416.765C745.886 416.817 743.032 413.756 742.997 408.5C742.973 405.013 743.049 401.525 743.465 397.898C744.221 394.603 744.937 391.443 744.892 388.294C744.805 382.13 744.294 375.972 743.958 369.347C743.955 359.889 743.951 350.893 744.251 341.606C744.687 335.84 744.969 330.365 744.899 324.894C744.851 321.152 744.312 317.416 743.985 313.227C743.971 303.497 743.964 294.216 744.256 284.636C744.684 278.201 744.944 272.064 744.887 265.931C744.856 262.532 744.294 259.138 743.969 255.296C743.269 245.507 742.57 236.164 742.199 226.803C742.746 226.799 742.964 226.813 743.183 226.827C744.033 229.702 745.384 232.534 745.634 235.46C746.269 242.904 746.693 250.39 746.707 257.861C746.795 307.185 746.748 356.509 746.757 405.833C746.758 412.965 746.789 413.001 753.996 412.999C768.66 412.996 783.324 412.961 797.988 412.916C804.992 412.895 805.982 411.933 805.996 404.734C806.048 377.74 806.067 350.745 806.068 323.75C806.069 295.089 806.358 266.423 805.899 237.768C805.624 220.644 803.48 203.628 797.381 187.431C789.009 165.199 773.709 149.26 751.994 138.418C750.343 137.596 749.178 137.216 748.012 136.837Z" fill="#EBD69C"/>
<path d="M292.799 167.469C293.252 167.065 293.515 166.879 293.819 166.38C294.236 166.042 294.492 165.85 294.809 165.372C295.236 165.041 295.492 164.849 295.809 164.371C296.237 164.042 296.493 163.851 296.81 163.372C297.242 163.048 297.502 162.86 297.815 162.376C298.248 162.056 298.511 161.87 298.82 161.378C299.202 160.981 299.48 160.805 299.838 160.391C300.203 159.982 300.487 159.811 300.844 159.396C308.598 154.018 315.836 147.97 324.07 143.976C334.689 138.825 346.105 135.318 357.929 130.953C367.775 129.546 376.868 128.289 386.429 127.084C393.596 127.066 400.296 126.998 407.431 127C410.23 127.077 412.595 127.083 415.367 127.194C424.711 128.726 433.648 130.153 442.834 131.768C443.692 132.057 444.302 132.157 445.178 132.509C456.87 135.89 468.034 139.757 477.73 146.734C485.659 152.44 493.204 158.68 501.017 164.947C501.78 165.849 502.445 166.488 503.217 167.444C507.268 172.91 511.212 178.061 515.173 183.448C515.322 184.008 515.562 184.195 515.926 184.214C515.943 184.183 515.884 184.222 515.936 184.538C516.609 185.705 517.23 186.556 517.884 187.635C517.916 187.864 518.21 188.22 518.213 188.452C518.34 189.003 518.571 189.189 518.928 189.212C518.945 189.184 518.888 189.218 518.933 189.547C519.868 191.356 520.757 192.836 521.732 194.65C522.322 195.737 522.825 196.492 523.304 197.462C523.383 198.029 523.61 198.154 523.954 198.1C523.947 198.145 524.039 198.153 523.998 198.461C524.28 199.243 524.604 199.718 524.913 200.547C525.554 202.348 526.211 203.794 526.864 205.628C528.955 212.718 531.05 219.419 533.124 226.518C534.718 237.006 536.331 247.096 537.91 257.629C538.036 260.132 538.197 262.192 538.341 264.714C538.325 270.481 538.327 275.786 538.191 281.5C538.049 283.34 538.046 284.772 537.993 286.569C536.933 287.811 535.923 288.686 534.91 289.319C534.936 288.752 534.941 288.427 534.989 287.693C535.361 285.666 535.892 284.055 535.937 282.43C536.52 261.451 535.002 240.711 528.884 220.483C525.66 209.82 522.551 199.11 516.077 189.835C511.637 183.475 507.074 177.198 502.426 170.989C492.928 158.302 479.935 149.826 466.131 142.923C450.766 135.239 434.125 131.585 416.925 129.975C399.096 128.307 381.414 129.081 363.95 132.278C335.18 137.546 310.599 150.604 291.311 173.166C278.748 187.863 270.1 204.665 265.365 223.071C260.096 243.551 256.774 264.32 258.617 285.921C260.481 307.769 263.705 329.007 273.045 348.96C282.411 368.969 296.559 385.072 314.974 397.085C339.374 413.003 366.964 418.354 395.543 419.033C406.769 419.299 418.104 418.455 429.27 417.115C454.163 414.127 477.198 406.408 496.93 389.995C513.257 376.413 524.215 359.522 530.954 339.638C532.554 334.916 531.97 334.187 526.769 334.174C510.609 334.135 494.448 334.203 478.288 334.108C475.291 334.09 473.688 334.823 472.371 337.942C465.177 354.99 452.296 366.216 434.993 372.196C422.251 376.599 409.299 378.494 395.487 377.486C374.462 375.951 356.289 368.745 341.61 354.054C325.321 337.753 318.919 316.813 317.04 294.332C316.902 292.68 318.276 290.901 318.927 289.426C318.906 289.671 318.938 290.16 318.867 290.604C320.156 298.46 321.516 305.872 322.864 313.673C324.807 319.528 326.76 324.993 328.744 330.662C328.773 330.866 329.044 331.174 329.041 331.523C330.294 334.025 331.551 336.178 332.815 338.26C332.822 338.188 332.757 338.316 332.794 338.645C333.642 340.009 334.452 341.044 335.32 342.402C341.261 351.272 348.355 358.525 357.836 363.734C361.97 365.775 365.861 367.564 369.912 369.555C370.398 369.787 370.727 369.818 371.36 369.954C372.093 370.109 372.52 370.159 373.152 370.514C377.578 371.86 381.8 372.901 386.43 374.056C396.297 374.207 405.758 374.244 415.623 374.35C420.469 373.368 424.91 372.316 429.506 371.317C429.66 371.369 429.905 371.156 430.248 371.163C431.243 370.644 431.894 370.118 432.695 369.675C433.096 369.821 433.306 369.754 433.67 369.719C434.293 369.705 434.721 369.531 435.466 369.338C436.186 369.188 436.588 369.055 437.233 368.954C437.834 368.935 438.081 368.742 438.552 368.347C440.579 367.245 442.27 366.201 444.315 365.142C454.85 359.526 462.858 351.815 468.138 340.956C469.565 337.84 470.751 334.988 472.403 332.068C493.572 331.998 514.277 331.997 535.018 332.419C533.686 337.917 532.318 342.992 530.712 348.256C530.322 349.021 530.17 349.599 529.984 350.186C529.949 350.195 529.973 350.263 529.704 350.466C526.038 356.837 522.64 363.004 518.99 369.411C516.806 372.448 514.874 375.247 512.706 378.159C512.308 378.576 512.146 378.878 511.961 379.178C511.937 379.176 511.946 379.224 511.736 379.309C511.262 379.585 511.12 379.844 511.016 380.173C510.931 380.177 510.936 380.347 510.743 380.409C510.306 380.633 510.179 380.862 510.057 381.174C509.943 381.192 509.921 381.423 509.741 381.474C509.33 381.669 509.21 381.877 509.08 382.17C508.96 382.191 508.919 382.431 508.736 382.481C508.321 382.675 508.192 382.884 508.058 383.16C507.95 383.164 507.931 383.38 507.735 383.437C507.292 383.651 507.151 383.875 507.028 384.168C506.937 384.169 506.935 384.349 506.735 384.416C506.282 384.643 506.133 384.873 506.015 385.17C505.942 385.17 505.939 385.317 505.734 385.389C505.272 385.633 505.117 385.87 505.004 386.173C504.945 386.172 504.943 386.29 504.731 386.366C504.255 386.618 504.095 386.863 503.992 387.177C503.945 387.177 503.945 387.271 503.731 387.352C503.25 387.613 503.086 387.861 502.987 388.178C502.947 388.178 502.946 388.256 502.727 388.337C502.228 388.6 502.059 388.854 501.971 389.178C501.942 389.175 501.948 389.233 501.722 389.321C501.216 389.599 501.032 389.858 500.945 390.183C500.947 390.181 500.951 390.178 500.639 390.296C497.898 392.404 495.468 394.394 492.713 396.467C485.197 400.708 478.008 404.865 470.456 409.097C461.393 411.883 452.694 414.595 443.595 417.293C426.97 421.111 410.446 421.283 393.469 421.222C384.424 420.335 375.819 419.518 366.85 418.539C356.689 415.936 346.892 413.495 336.833 410.803C322.507 405.462 309.944 397.806 299.059 387.621C292.587 381.566 286.746 374.835 280.46 368.111C277.205 362.567 274.113 357.319 270.996 352.116C270.972 352.161 271.06 352.108 271.022 351.735C269.609 347.978 268.235 344.594 266.892 340.83C264.295 331.36 261.669 322.27 259.042 313.181C258.057 303.793 257.071 294.405 256 284.6C256.273 274.136 256.633 264.088 257.025 253.196C258.658 243.304 260.259 234.256 261.859 225.208C265.191 216.423 268.523 207.639 271.944 198.498C274.29 194.068 276.547 189.996 278.854 185.582C283.493 179.42 288.083 173.6 292.799 167.469Z" fill="#336FC5"/>
<path d="M318.948 289.182C318.276 290.901 316.902 292.68 317.04 294.332C318.919 316.813 325.321 337.753 341.61 354.054C356.289 368.745 374.462 375.951 395.487 377.486C409.299 378.494 422.251 376.599 434.993 372.196C452.295 366.216 465.177 354.99 472.371 337.942C473.687 334.823 475.291 334.09 478.288 334.108C494.448 334.203 510.609 334.135 526.769 334.174C531.97 334.187 532.554 334.916 530.954 339.638C524.215 359.522 513.257 376.413 496.93 389.995C477.198 406.408 454.163 414.127 429.27 417.115C418.104 418.455 406.769 419.299 395.542 419.033C366.963 418.354 339.374 413.003 314.974 397.085C296.559 385.072 282.411 368.969 273.045 348.96C263.705 329.007 260.481 307.769 258.617 285.921C256.774 264.32 260.096 243.551 265.365 223.071C270.1 204.665 278.748 187.863 291.311 173.166C310.599 150.604 335.18 137.546 363.95 132.278C381.414 129.081 399.096 128.307 416.925 129.975C434.125 131.585 450.766 135.239 466.131 142.923C479.934 149.826 492.928 158.302 502.426 170.989C507.074 177.198 511.637 183.475 516.077 189.835C522.551 199.11 525.66 209.82 528.884 220.483C535.002 240.711 536.52 261.451 535.937 282.43C535.892 284.055 535.361 285.666 534.563 287.711C532.36 288.152 530.65 288.165 528.647 287.893C524.552 287.799 520.75 287.988 516.479 288.172C480.321 288.168 444.632 288.17 408.709 287.911C406.966 287.824 405.457 287.997 403.48 288.165C383.321 288.165 363.632 288.171 343.657 287.896C340.23 287.803 337.089 287.991 333.483 288.172C328.329 288.486 323.641 288.805 318.956 289.139C318.959 289.154 318.948 289.182 318.948 289.182ZM358.469 247.753C360.633 247.573 362.797 247.393 365.897 247.213C384.243 247.212 402.59 247.211 421.471 247.742C423.635 247.568 425.798 247.394 428.897 247.218C443.255 247.206 457.614 247.194 472.405 246.979C472.674 246.792 472.872 246.547 473.775 246.026C474.163 244.512 474.901 242.993 474.881 241.484C474.737 230.484 470.611 220.625 466.34 210.689C457.849 190.931 442.596 179.422 422.638 173.136C408.072 168.548 393.37 167.995 378.518 171.293C363.955 174.528 350.714 180.716 340.897 192.075C329.556 205.197 322.261 220.625 319.36 237.854C318.903 240.566 317.058 244.087 321.26 246.709C321.814 246.871 322.368 247.034 323.861 247.211C335.217 247.216 346.573 247.222 358.469 247.753Z" fill="#156CED"/>
<path d="M0 148.093C1e-06 146.704 1.01328e-06 145.315 0.465277 143.572C9.93888 143.152 18.9472 143.085 28.2103 143.089C28.6316 143.103 28.798 143.046 29.4257 143.093C38.9267 143.107 47.9666 143.018 57.255 143C57.6711 143.031 57.8386 142.991 58.396 143.053C60.6084 143.805 62.4311 144.454 64.2565 145.467C67.8869 155.236 71.5145 164.64 75.1693 174.409C78.7571 183.913 82.3178 193.053 85.9425 202.503C86.1527 203.207 86.2987 203.6 86.5677 204.293C90.3608 214.102 94.031 223.612 97.7586 233.515C101.469 243.358 105.122 252.809 108.82 262.63C110.496 267.105 112.128 271.21 113.822 275.693C115.86 281.147 117.835 286.223 119.869 291.657C123.595 301.338 127.261 310.661 130.96 320.38C134.227 329.338 137.462 337.901 140.741 346.813C141.636 349.054 142.487 350.946 144.017 354.345C148.662 341.97 152.772 331.022 156.955 319.705C160.703 309.932 164.377 300.527 168.326 290.917C169.084 289.189 169.569 287.666 170.342 285.916C171.151 283.988 171.569 282.247 172.211 280.594C174.868 273.748 177.594 266.928 180.547 259.867C184.18 250.802 187.561 241.97 191.182 232.935C191.675 231.946 191.927 231.158 192.387 230.232C192.795 229.793 192.833 229.474 192.89 228.817C193.776 226.47 194.482 224.441 195.4 222.266C195.654 221.792 195.697 221.464 195.909 220.844C196.44 219.497 196.803 218.442 197.38 217.247C197.642 216.783 197.691 216.458 197.917 215.799C198.591 214.038 199.087 212.612 199.771 210.918C200.647 208.492 201.335 206.334 202.325 203.982C206.395 193.876 210.163 183.962 214.191 173.798C218.061 164.155 221.671 154.763 225.486 145.164C226.14 144.325 226.587 143.694 227.498 143.111C237.287 143.115 246.613 143.071 256.409 143.108C265.927 143.138 274.974 143.087 284.382 143.139C286.019 143.848 287.295 144.453 288.362 145.322C286.758 149.624 285.364 153.663 283.698 157.969C281.355 163.52 279.282 168.803 276.983 174.377C272.923 184.156 269.09 193.644 265.035 203.425C261.177 212.825 257.543 221.933 253.633 231.265C249.465 241.595 245.572 251.702 241.436 262.063C237.409 271.556 233.626 280.794 229.598 290.236C229.236 291.27 229.119 292.101 228.79 293.038C228.339 293.388 228.249 293.679 228.159 294.233C228.009 294.625 228.005 294.799 227.726 295.202C224.18 303.641 220.911 311.852 217.421 320.325C213.446 329.717 209.69 338.846 205.635 348.182C201.642 357.59 197.947 366.791 194.255 375.993C190.493 385.372 186.732 394.752 182.74 404.313C181.123 407.696 179.335 410.789 178.444 414.122C177.143 418.993 174.553 420.501 169.501 420.237C163.003 419.898 156.445 420.703 149.486 421.056C147.062 421.069 145.065 421.042 142.803 420.676C131.694 420.25 120.849 420.163 109.826 419.778C107.395 414.349 105.141 409.216 102.86 403.725C98.9766 393.874 95.1198 384.38 91.0417 374.589C88.5565 368.731 86.2925 363.17 84.0509 357.267C82.8907 353.972 81.7082 351.018 80.4357 347.684C76.6221 338.187 72.8985 329.071 69.1257 319.59C61.3513 300.175 53.6262 281.125 45.9055 261.829C45.91 261.584 45.7688 261.113 45.8053 260.858C45.625 260.354 45.4082 260.105 45.1022 259.503C40.6835 248.79 36.3539 238.428 32.0146 228.079C32.0049 228.09 32.0269 228.083 32.0378 227.739C31.7215 226.81 31.3943 226.225 31.133 225.477C31.1989 225.314 30.9254 225.093 30.9312 224.734C30.0789 222.23 29.2207 220.085 28.3284 217.604C27.8003 216.536 27.3064 215.804 26.8462 214.811C26.6027 214.349 26.3256 214.149 26.0614 213.632C26.0078 212.903 25.9414 212.49 25.895 211.817C25.6178 211.385 25.3205 211.213 25.0099 211.065C24.9966 211.089 25.0462 211.067 25.0174 210.692C24.0764 207.812 23.1642 205.307 22.2296 202.434C18.2562 191.983 14.3051 181.9 10.12 171.529C6.59066 163.525 3.29533 155.809 0 148.093ZM211.607 327.679C215.759 317.608 219.92 307.54 224.06 297.464C228.208 287.368 232.289 277.244 236.493 267.172C238.534 262.282 240.939 257.541 242.921 252.628C250.542 233.74 258.044 214.804 265.62 195.898C272.135 179.641 278.691 163.4 285.353 146.844C283.927 146.429 283.339 146.118 282.744 146.105C266.117 145.745 249.489 145.473 232.866 145.03C229.489 144.94 227.553 146.348 226.391 149.323C220.299 164.931 214.183 180.53 208.083 196.136C199.283 218.651 190.492 241.17 181.693 263.685C175.128 280.483 168.556 297.279 161.438 314.575C156.53 327.187 151.686 339.825 146.61 352.369C146.112 353.599 144.192 354.254 142.527 355.473C141.423 353.508 140.447 352.164 139.866 350.667C136.634 342.337 133.463 333.983 130.339 325.612C126.628 315.67 123.112 305.653 119.283 295.758C114.209 282.644 108.773 269.669 103.754 256.535C99.0908 244.331 94.9175 231.941 90.269 219.732C81.6443 197.079 72.7517 174.529 64.1413 151.871C61.4141 144.695 61.6674 144.631 53.8025 145.895C52.3359 146.13 50.8106 146.079 49.3151 146.044C36.3582 145.739 23.4031 145.346 10.4451 145.11C3.58355 144.984 3.0622 145.917 5.51544 152.172C10.1108 163.889 14.5926 175.651 19.1774 187.373C27.15 207.756 35.0864 228.153 43.1822 248.487C53.0479 273.266 63.0919 297.974 73.0051 322.734C85.1611 353.096 97.2657 383.479 109.379 413.858C110.559 416.818 112.485 418.18 115.857 418.156C133.684 418.031 151.512 418.039 169.34 418.143C173.343 418.166 175.561 415.969 176.88 412.762C185.321 392.246 193.672 371.694 201.998 351.132C205.093 343.488 208.042 335.787 211.607 327.679Z" fill="#C64546"/>
<path d="M211.058 328.112C208.042 335.787 205.093 343.489 201.998 351.132C193.672 371.694 185.321 392.247 176.88 412.762C175.561 415.969 173.343 418.166 169.34 418.143C151.512 418.039 133.684 418.031 115.857 418.156C112.485 418.18 110.559 416.818 109.379 413.858C97.2656 383.479 85.161 353.096 73.005 322.734C63.0919 297.974 53.0478 273.266 43.1822 248.487C35.0864 228.153 27.1499 207.756 19.1774 187.373C14.5925 175.651 10.1108 163.889 5.51538 152.172C3.06215 145.917 3.58349 144.984 10.445 145.11C23.4031 145.346 36.3582 145.739 49.3151 146.044C50.8105 146.079 52.3359 146.131 53.8024 145.895C61.6673 144.631 61.414 144.695 64.1412 151.871C72.7517 174.529 81.6442 197.079 90.2689 219.732C94.9175 231.941 99.0907 244.331 103.754 256.535C108.773 269.669 114.209 282.644 119.283 295.758C123.112 305.654 126.628 315.67 130.339 325.612C133.463 333.983 136.634 342.337 139.866 350.667C140.447 352.164 141.423 353.508 142.527 355.473C144.192 354.254 146.112 353.599 146.61 352.369C151.686 339.825 156.53 327.187 161.909 314.672C164.734 315.211 167.093 315.628 169.442 316.099C173.368 316.885 177.371 318.661 181.193 318.326C191.429 317.43 200.364 319.64 208.052 326.58C208.858 327.307 210.047 327.611 211.058 328.112Z" fill="#EB2B2E"/>
<path d="M211.332 327.895C210.047 327.611 208.858 327.307 208.052 326.58C200.364 319.64 191.429 317.429 181.193 318.326C177.371 318.661 173.368 316.885 169.442 316.099C167.093 315.628 164.734 315.211 162.183 314.422C168.556 297.279 175.128 280.483 181.693 263.685C190.492 241.17 199.283 218.651 208.083 196.136C214.183 180.53 220.298 164.931 226.391 149.323C227.553 146.348 229.489 144.94 232.865 145.03C249.489 145.473 266.117 145.745 282.744 146.105C283.339 146.118 283.927 146.429 285.353 146.844C278.691 163.4 272.135 179.641 265.62 195.898C258.044 214.804 250.542 233.74 242.921 252.628C240.939 257.541 238.534 262.282 236.493 267.172C232.289 277.244 228.208 287.368 224.06 297.464C219.92 307.54 215.759 317.608 211.332 327.895Z" fill="#EB2B2C"/>
</svg>
